<?xml version="1.0" encoding="utf-8"?>
<!-- Generator: Adobe Illustrator 23.0.5, SVG Export Plug-In . SVG Version: 6.00 Build 0)  -->
<svg version="1.1" id="Capa_1" xmlns="http://www.w3.org/2000/svg" xmlns:xlink="http://www.w3.org/1999/xlink" x="0px" y="0px"
	 viewBox="0 0 64 64" style="enable-background:new 0 0 64 64;" xml:space="preserve">
<style type="text/css">
	.st0{fill:#FFFFFF;}
</style>
<title></title>
<g id="Teamwork">
	<path class="st0" d="M23.4,31h17.3c0.6,0,1-0.4,1-1c0,0,0-0.1,0-0.1l-0.4-4.4c-0.3-3.2-2.2-6.1-5.1-7.5c4.1-2.3,5.7-7.5,3.4-11.6
		S32,0.8,27.9,3s-5.7,7.5-3.4,11.6c0.8,1.4,2,2.6,3.4,3.4c-2.9,1.4-4.9,4.3-5.1,7.5l-0.4,4.4C22.3,30.5,22.7,30.9,23.4,31
		C23.3,31,23.3,31,23.4,31z M25.4,10.6C25.4,6.9,28.4,4,32,4c3.6,0,6.6,2.9,6.6,6.6s-2.9,6.6-6.6,6.6C28.4,17.1,25.4,14.2,25.4,10.6
		z M24.8,25.7c0.4-4,3.9-7,7.9-6.6c3.5,0.3,6.3,3.1,6.6,6.6l0.3,3.3H24.5L24.8,25.7z"/>
	<path class="st0" d="M15.7,49.1c4.1-2.3,5.7-7.5,3.4-11.6S11.7,31.8,7.5,34c-4.1,2.3-5.7,7.5-3.4,11.6c0.8,1.4,2,2.6,3.4,3.4
		c-2.9,1.4-4.9,4.3-5.1,7.5L2,60.9c-0.1,0.5,0.4,1,0.9,1.1c0,0,0.1,0,0.1,0h17.3c0.6,0,1-0.4,1-1c0,0,0-0.1,0-0.1l-0.4-4.4
		C20.6,53.3,18.7,50.5,15.7,49.1z M5.1,41.6c0-3.6,2.9-6.6,6.6-6.6s6.6,2.9,6.6,6.6c0,3.6-2.9,6.6-6.6,6.6C8,48.1,5.1,45.2,5.1,41.6
		z M4.1,60l0.3-3.3c0.4-4,3.9-7,7.9-6.6c3.5,0.3,6.3,3.1,6.6,6.6l0.3,3.3H4.1z"/>
	<path class="st0" d="M61.6,56.6c-0.3-3.2-2.2-6.1-5.1-7.5c4.1-2.3,5.7-7.5,3.4-11.6c-2.3-4.1-7.5-5.7-11.6-3.4
		c-4.1,2.3-5.7,7.5-3.4,11.6c0.8,1.4,2,2.6,3.4,3.4c-2.9,1.4-4.9,4.3-5.1,7.5l-0.4,4.4c-0.1,0.6,0.4,1,0.9,1.1c0,0,0.1,0,0.1,0H61
		c0.6,0,1-0.4,1-1c0,0,0-0.1,0-0.1L61.6,56.6z M45.8,41.6c0-3.6,2.9-6.6,6.6-6.6c3.6,0,6.6,2.9,6.6,6.6c0,3.6-2.9,6.6-6.6,6.6l0,0
		C48.7,48.1,45.8,45.2,45.8,41.6z M44.8,60l0.3-3.3c0.4-4,3.9-7,7.9-6.6c3.5,0.3,6.3,3.1,6.6,6.6l0.3,3.3H44.8z"/>
	<path class="st0" d="M33,43.5V35c0-0.6-0.4-1-1-1s-1,0.4-1,1v8.5l-8.6,6.7c-0.4,0.3-0.5,1-0.2,1.4s1,0.5,1.4,0.2l8.4-6.5l8.4,6.5
		c0.4,0.3,1.1,0.3,1.4-0.2s0.3-1.1-0.2-1.4L33,43.5z"/>
</g>
</svg>
